HIERARCHY
ROOT Root
{
  OFFSET 0.0 0.0 0.0
  CHANNELS 6 Xposition Yposition Zposition Zrotation Yrotation Xrotation
  JOINT Hips
  {
    OFFSET 0.0 100.0 0.0
    CHANNELS 6 Xposition Yposition Zposition Zrotation Yrotation Xrotation
    JOINT Spine1
    {
      OFFSET 5.003913 -0.037094 -0.013727
      CHANNELS 3 Zrotation Yrotation Xrotation
      JOINT Spine2
      {
        OFFSET 7.125363 -1e-06 0.0
        CHANNELS 3 Zrotation Yrotation Xrotation
        JOINT Chest
        {
          OFFSET 7.594027 1e-06 0.0
          CHANNELS 3 Zrotation Yrotation Xrotation
          JOINT Neck1
          {
            OFFSET 26.313086 -0.460272 -0.181672
            CHANNELS 3 Zrotation Yrotation Xrotation
            JOINT Neck2
            {
              OFFSET 8.045911 0.0 0.0
              CHANNELS 3 Zrotation Yrotation Xrotation
              JOINT Head
              {
                OFFSET 6.432774 0.0 0.0
                CHANNELS 3 Zrotation Yrotation Xrotation
                JOINT HeadEnd
                {
                  OFFSET 16.169773 0.06451 0.00362
                  CHANNELS 3 Zrotation Yrotation Xrotation
                }
                JOINT Jaw
                {
                  OFFSET 0.108741 3.12938 0.002639
                  CHANNELS 3 Zrotation Yrotation Xrotation
                }
                JOINT LeftEye
                {
                  OFFSET 4.45173 8.166359 3.206392
                  CHANNELS 3 Zrotation Yrotation Xrotation
                }
                JOINT RightEye
                {
                  OFFSET 4.436895 8.135758 -3.222429
                  CHANNELS 3 Zrotation Yrotation Xrotation
                }
              }
            }
          }
          JOINT LeftShoulder
          {
            OFFSET 23.218927 5.195579 1.621656
            CHANNELS 3 Zrotation Yrotation Xrotation
            JOINT LeftArm
            {
              OFFSET 15.902118 2e-06 -2e-06
              CHANNELS 3 Zrotation Yrotation Xrotation
              JOINT LeftForeArm
              {
                OFFSET 28.739307 0.0 -1e-06
                CHANNELS 3 Zrotation Yrotation Xrotation
                JOINT LeftHand
                {
                  OFFSET 27.093981 -4e-06 0.0
                  CHANNELS 3 Zrotation Yrotation Xrotation
                  JOINT LeftHandThumb1
                  {
                    OFFSET 2.276781 3.380274 0.83384
                    CHANNELS 3 Zrotation Yrotation Xrotation
                    JOINT LeftHandThumb2
                    {
                      OFFSET 4.705309 -1e-06 -1e-06
                      CHANNELS 3 Zrotation Yrotation Xrotation
                      JOINT LeftHandThumb3
                      {
                        OFFSET 2.798515 0.0 3e-06
                        CHANNELS 3 Zrotation Yrotation Xrotation
                        JOINT LeftHandThumbEnd
                        {
                          OFFSET 3.180793 4e-06 -4e-06
                          CHANNELS 3 Zrotation Yrotation Xrotation
                        }
                      }
                    }
                  }
                  JOINT LeftHandIndex1
                  {
                    OFFSET 3.247786 2.352677 0.137192
                    CHANNELS 3 Zrotation Yrotation Xrotation
                    JOINT LeftHandIndex2
                    {
                      OFFSET 6.367095 1e-06 0.0
                      CHANNELS 3 Zrotation Yrotation Xrotation
                      JOINT LeftHandIndex3
                      {
                        OFFSET 3.662364 0.0 0.0
                        CHANNELS 3 Zrotation Yrotation Xrotation
                        JOINT LeftHandIndex4
                        {
                          OFFSET 2.329242 4e-06 -4e-06
                          CHANNELS 3 Zrotation Yrotation Xrotation
                          JOINT LeftHandIndexEnd
                          {
                            OFFSET 2.767823 1e-06 0.0
                            CHANNELS 3 Zrotation Yrotation Xrotation
                          }
                        }
                      }
                    }
                  }
                  JOINT LeftHandMiddle1
                  {
                    OFFSET 3.163612 0.945023 -0.406112
                    CHANNELS 3 Zrotation Yrotation Xrotation
                    JOINT LeftHandMiddle2
                    {
                      OFFSET 6.276789 3e-06 0.0
                      CHANNELS 3 Zrotation Yrotation Xrotation
                      JOINT LeftHandMiddle3
                      {
                        OFFSET 4.35652 -1e-06 4e-06
                        CHANNELS 3 Zrotation Yrotation Xrotation
                        JOINT LeftHandMiddle4
                        {
                          OFFSET 2.996877 0.0 8e-06
                          CHANNELS 3 Zrotation Yrotation Xrotation
                          JOINT LeftHandMiddleEnd
                          {
                            OFFSET 2.323256 3e-06 -4e-06
                            CHANNELS 3 Zrotation Yrotation Xrotation
                          }
                        }
                      }
                    }
                  }
                  JOINT LeftHandRing1
                  {
                    OFFSET 2.882606 -0.309162 0.107445
                    CHANNELS 3 Zrotation Yrotation Xrotation
                    JOINT LeftHandRing2
                    {
                      OFFSET 6.033198 0.0 4e-06
                      CHANNELS 3 Zrotation Yrotation Xrotation
                      JOINT LeftHandRing3
                      {
                        OFFSET 4.350578 3e-06 0.0
                        CHANNELS 3 Zrotation Yrotation Xrotation
                        JOINT LeftHandRing4
                        {
                          OFFSET 2.651321 2e-06 -7e-06
                          CHANNELS 3 Zrotation Yrotation Xrotation
                          JOINT LeftHandRingEnd
                          {
                            OFFSET 1.937663 1e-06 -4e-06
                            CHANNELS 3 Zrotation Yrotation Xrotation
                          }
                        }
                      }
                    }
                  }
                  JOINT LeftHandPinky1
                  {
                    OFFSET 2.865315 -1.525436 0.575687
                    CHANNELS 3 Zrotation Yrotation Xrotation
                    JOINT LeftHandPinky2
                    {
                      OFFSET 5.54936 1e-06 -8e-06
                      CHANNELS 3 Zrotation Yrotation Xrotation
                      JOINT LeftHandPinky3
                      {
                        OFFSET 3.070974 0.0 -4e-06
                        CHANNELS 3 Zrotation Yrotation Xrotation
                        JOINT LeftHandPinky4
                        {
                          OFFSET 1.549672 1e-06 0.0
                          CHANNELS 3 Zrotation Yrotation Xrotation
                          JOINT LeftHandPinkyEnd
                          {
                            OFFSET 1.952123 0.0 0.0
                            CHANNELS 3 Zrotation Yrotation Xrotation
                          }
                        }
                      }
                    }
                  }
                }
              }
            }
          }
          JOINT RightShoulder
          {
            OFFSET 23.161716 5.296122 -1.380114
            CHANNELS 3 Zrotation Yrotation Xrotation
            JOINT RightArm
            {
              OFFSET -16.027195 -2e-06 1.1e-05
              CHANNELS 3 Zrotation Yrotation Xrotation
              JOINT RightForeArm
              {
                OFFSET -28.736639 4e-06 2e-06
                CHANNELS 3 Zrotation Yrotation Xrotation
                JOINT RightHand
                {
                  OFFSET -27.133619 6e-06 0.0
                  CHANNELS 3 Zrotation Yrotation Xrotation
                  JOINT RightHandThumb1
                  {
                    OFFSET -2.274328 -3.351035 -0.83067
                    CHANNELS 3 Zrotation Yrotation Xrotation
                    JOINT RightHandThumb2
                    {
                      OFFSET -4.703594 -3e-06 2e-06
                      CHANNELS 3 Zrotation Yrotation Xrotation
                      JOINT RightHandThumb3
                      {
                        OFFSET -2.794935 -4e-06 -3e-06
                        CHANNELS 3 Zrotation Yrotation Xrotation
                        JOINT RightHandThumbEnd
                        {
                          OFFSET -3.183852 4e-06 1e-06
                          CHANNELS 3 Zrotation Yrotation Xrotation
                        }
                      }
                    }
                  }
                  JOINT RightHandIndex1
                  {
                    OFFSET -3.253496 -2.33755 -0.127667
                    CHANNELS 3 Zrotation Yrotation Xrotation
                    JOINT RightHandIndex2
                    {
                      OFFSET -6.344434 0.0 0.0
                      CHANNELS 3 Zrotation Yrotation Xrotation
                      JOINT RightHandIndex3
                      {
                        OFFSET -3.654871 0.0 -8e-06
                        CHANNELS 3 Zrotation Yrotation Xrotation
                        JOINT RightHandIndex4
                        {
                          OFFSET -2.327586 -1e-06 0.0
                          CHANNELS 3 Zrotation Yrotation Xrotation
                          JOINT RightHandIndexEnd
                          {
                            OFFSET -2.770001 3e-06 8e-06
                            CHANNELS 3 Zrotation Yrotation Xrotation
                          }
                        }
                      }
                    }
                  }
                  JOINT RightHandMiddle1
                  {
                    OFFSET -3.168223 -0.944764 0.411762
                    CHANNELS 3 Zrotation Yrotation Xrotation
                    JOINT RightHandMiddle2
                    {
                      OFFSET -6.266691 -1e-06 -4e-06
                      CHANNELS 3 Zrotation Yrotation Xrotation
                      JOINT RightHandMiddle3
                      {
                        OFFSET -4.348901 0.0 0.0
                        CHANNELS 3 Zrotation Yrotation Xrotation
                        JOINT RightHandMiddle4
                        {
                          OFFSET -3.00024 2e-06 -4e-06
                          CHANNELS 3 Zrotation Yrotation Xrotation
                          JOINT RightHandMiddleEnd
                          {
                            OFFSET -2.321477 -4e-06 -4e-06
                            CHANNELS 3 Zrotation Yrotation Xrotation
                          }
                        }
                      }
                    }
                  }
                  JOINT RightHandRing1
                  {
                    OFFSET -2.885654 0.293261 -0.119232
                    CHANNELS 3 Zrotation Yrotation Xrotation
                    JOINT RightHandRing2
                    {
                      OFFSET -6.032835 -1e-06 -4e-06
                      CHANNELS 3 Zrotation Yrotation Xrotation
                      JOINT RightHandRing3
                      {
                        OFFSET -4.33881 0.0 -4e-06
                        CHANNELS 3 Zrotation Yrotation Xrotation
                        JOINT RightHandRing4
                        {
                          OFFSET -2.654903 -4e-06 -4e-06
                          CHANNELS 3 Zrotation Yrotation Xrotation
                          JOINT RightHandRingEnd
                          {
                            OFFSET -1.935122 0.0 4e-06
                            CHANNELS 3 Zrotation Yrotation Xrotation
                          }
                        }
                      }
                    }
                  }
                  JOINT RightHandPinky1
                  {
                    OFFSET -2.866241 1.503904 -0.60527
                    CHANNELS 3 Zrotation Yrotation Xrotation
                    JOINT RightHandPinky2
                    {
                      OFFSET -5.553177 -2e-06 0.0
                      CHANNELS 3 Zrotation Yrotation Xrotation
                      JOINT RightHandPinky3
                      {
                        OFFSET -3.062664 -1e-06 -4e-06
                        CHANNELS 3 Zrotation Yrotation Xrotation
                        JOINT RightHandPinky4
                        {
                          OFFSET -1.546529 2e-06 4e-06
                          CHANNELS 3 Zrotation Yrotation Xrotation
                          JOINT RightHandPinkyEnd
                          {
                            OFFSET -1.952341 0.0 -4e-06
                            CHANNELS 3 Zrotation Yrotation Xrotation
                          }
                        }
                      }
                    }
                  }
                }
              }
            }
          }
        }
      }
    }
    JOINT LeftLeg
    {
      OFFSET -8.443107 2.567604 10.043214
      CHANNELS 3 Zrotation Yrotation Xrotation
      JOINT LeftShin
      {
        OFFSET 43.229198 1e-06 -1e-06
        CHANNELS 3 Zrotation Yrotation Xrotation
        JOINT LeftFoot
        {
          OFFSET 42.298611 1e-06 1e-06
          CHANNELS 3 Zrotation Yrotation Xrotation
          JOINT LeftToeBase
          {
            OFFSET 14.165858 1e-06 0.0
            CHANNELS 3 Zrotation Yrotation Xrotation
            JOINT LeftToeEnd
            {
              OFFSET 6.7141 -0.234461 0.0
              CHANNELS 3 Zrotation Yrotation Xrotation
            }
          }
        }
      }
    }
    JOINT RightLeg
    {
      OFFSET -8.303923 2.592729 -10.047278
      CHANNELS 3 Zrotation Yrotation Xrotation
      JOINT RightShin
      {
        OFFSET -43.369682 0.0 1e-06
        CHANNELS 3 Zrotation Yrotation Xrotation
        JOINT RightFoot
        {
          OFFSET -42.260784 4e-06 2e-06
          CHANNELS 3 Zrotation Yrotation Xrotation
          JOINT RightToeBase
          {
            OFFSET -14.222245 -2e-06 -1e-06
            CHANNELS 3 Zrotation Yrotation Xrotation
            JOINT RightToeEnd
            {
              OFFSET -6.660062 0.232574 -2e-06
              CHANNELS 3 Zrotation Yrotation Xrotation
            }
          }
        }
      }
    }
  }
}
MOTION
Frames: 5
Frame Time: 0.03333333333333333
0.0 0.0 0.0 0.0 -0.0 0.0 1.697686 100.035583 5.841329 92.251686 9.116668 90.275925 1.568608 -0.083724 0.402237 -11.122319 -0.661383 -0.38018 31.656473 -0.632011 -1.9553 59.162472 -4.638852 1.706942 -2.562349 -1.144621 -0.916633 -18.35519 -3.889392 -0.411782 7e-06 0.0 0.0 -0.086351 0.073811 -0.031436 0.100846 0.148378 -0.005609 0.008626 -0.001487 -0.039406 -125.523674 -79.695534 149.763901 54.212215 -50.795349 -7.241195 37.084129 -0.078757 -0.032994 -2.580441 11.085682 -11.928563 17.636625 -26.32272 52.411182 -19.466665 -14.395597 29.410393 -1e-06 -8.774822 -2e-06 15.893326 -18.177767 6.244 -0.609776 -1.795655 -3.889329 -4.807087 -11.046811 -2.937851 6e-06 -20.976019 -5e-06 -5.019969 -25.03356 -4.031882 7e-06 1e-06 -1e-06 -10.634534 -5.686972 -3.565589 10.573275 -17.922951 -3.113904 3e-06 -13.821209 -1e-06 -0.501771 -31.181505 -4.02702 -11.664297 -59.552258 7.423143 -13.982714 -7.150199 -2.875042 13.772731 -8.401491 -3.218245 0.347739 -34.211555 0.771649 -0.963027 -17.73337 2.621018 1e-06 1e-06 -1e-06 -17.346418 -20.095219 -4.201784 21.757557 -1.638376 3.866426 2e-06 -6.338824 -1e-06 -1.697586 -22.591742 -6.194008 -1e-06 -3e-06 -5e-06 41.18248 -82.977951 166.684036 67.855888 -44.617493 -17.84984 26.351139 -0.54159 0.166392 1.094299 -0.08647 12.014118 22.18211 -20.375893 49.933327 -16.701817 -16.74353 28.476532 -4e-06 -12.690603 -1e-06 16.339031 -17.987202 2.656821 -0.10592 -1.513856 -4.275881 -5.039041 -5.612872 -2.953557 5e-06 -11.020525 -5e-06 -6.111298 -15.895334 -3.840471 -1e-06 -1e-06 0.0 -10.28337 -5.680288 -4.341839 11.028296 -11.302404 -2.372633 -1.384266 -14.238579 -6.320124 -0.625435 -26.924187 -3.827601 -4.429746 -50.098408 -3.86443 -13.708526 -7.363476 -3.720941 18.141151 -14.052741 -3.242675 6e-06 -18.78727 -4e-06 -0.42971 -8.456039 2.555503 0.0 -1e-06 0.0 -15.923532 -20.094482 -5.473588 30.419214 -7.190827 1.735923 2e-06 -8.162925 -3e-06 -1.861899 -22.861467 -6.167943 -0.0 -4e-06 -2e-06 -169.116699 -0.2592 -9.972595 5.529411 -0.001175 -0.17632 -74.141678 -5.594695 -9.29824 -4.953409 1.364671 2.108605 -0.999998 0.0 0.0 9.32756 -6.226494 -0.68488 9.346076 0.040793 -0.013481 -78.698853 -0.959813 -7.282859 -4.886006 0.789629 1.698371 -1.000001 -0.0 -0.0 
0.0 0.0 0.0 0.0 -0.0 0.0 1.837554 100.07312 5.838659 92.245064 9.032611 90.207909 1.567662 -0.1124 0.369626 -11.100758 -0.640632 -0.351462 31.604395 -0.605902 -1.979833 59.104435 -4.61639 1.67059 -2.544154 -1.062671 -0.852732 -18.366657 -3.823085 -0.393743 7e-06 -0.0 0.0 -0.091815 0.05227 -0.023437 0.088705 0.123352 -0.000772 0.013053 -0.020053 -0.029648 -124.978226 -79.715965 149.277573 54.180912 -50.836552 -7.340695 36.957741 -0.155717 -0.090307 -2.48244 10.990198 -11.757271 17.636629 -26.322741 52.411213 -19.46666 -14.395598 29.410395 -0.0 -8.774822 -0.0 15.942863 -18.163616 6.215319 -0.609776 -1.795653 -3.889329 -4.807091 -11.046811 -2.93785 4e-06 -20.976021 -1e-06 -5.019973 -25.033564 -4.031881 6e-06 1e-06 -1e-06 -10.634535 -5.686971 -3.56559 10.573272 -17.922955 -3.113901 2e-06 -13.821213 2e-06 -0.501779 -31.181511 -4.027018 -11.638862 -59.59737 7.467769 -13.982718 -7.1502 -2.875044 13.772731 -8.40149 -3.218245 0.34773 -34.211555 0.771657 -0.96303 -17.733376 2.621019 -1e-06 1e-06 -1e-06 -17.346422 -20.095221 -4.201779 21.757561 -1.638374 3.866428 1e-06 -6.338823 -1e-06 -1.697591 -22.591745 -6.194005 -0.0 -3e-06 -1e-06 41.698898 -82.879219 166.269913 67.726051 -44.865303 -17.819117 26.313423 -0.593023 0.136745 1.073471 -0.083715 11.983944 22.182114 -20.375904 49.933342 -16.701817 -16.743534 28.476538 -3e-06 -12.690603 -1e-06 16.291317 -17.97048 2.672703 -0.105921 -1.513857 -4.275881 -5.039042 -5.612873 -2.953557 5e-06 -11.020527 -2e-06 -6.111301 -15.895334 -3.840467 -0.0 -0.0 0.0 -10.283371 -5.68029 -4.34184 11.028293 -11.302406 -2.372631 -1.384269 -14.238583 -6.320123 -0.625438 -26.924194 -3.8276 -4.449516 -50.163292 -3.78641 -13.708527 -7.363477 -3.720941 18.141148 -14.05274 -3.242673 3e-06 -18.787271 -0.0 -0.429711 -8.456045 2.555502 1e-06 0.0 0.0 -15.923536 -20.094486 -5.473587 30.419214 -7.190824 1.735925 2e-06 -8.162927 -2e-06 -1.861905 -22.861469 -6.167939 -2e-06 -3e-06 -1e-06 -169.156067 -0.182501 -9.993266 5.461738 0.020941 -0.1315 -74.027298 -5.559408 -9.360491 -4.995373 1.363219 2.10709 -1.0 -0.0 0.0 9.524119 -6.328464 -0.726601 8.660878 0.036189 -0.012856 -78.379593 -0.86529 -7.327339 -4.985218 0.779546 1.69606 -1.000002 0.0 0.0 
0.0 0.0 0.0 0.0 -0.0 0.0 1.92071 100.084564 5.819063 92.241539 9.020713 90.167809 1.584714 -0.142889 0.364214 -11.084298 -0.636898 -0.3542 31.644085 -0.542099 -1.984227 59.057484 -4.57605 1.628061 -2.552585 -1.001299 -0.824492 -18.364046 -3.848887 -0.330364 8e-06 -1e-06 0.0 -0.090903 0.048407 -0.02168 0.054745 0.118261 -0.009825 -0.01317 -0.022753 -0.018836 -124.573967 -79.775551 148.92337 54.12009 -50.850304 -7.273423 36.914768 -0.185712 -0.127955 -2.516012 10.864411 -11.745897 17.636627 -26.322733 52.41119 -19.466656 -14.395598 29.410389 0.0 -8.774821 -2e-06 15.975939 -18.193195 6.209569 -0.609776 -1.795654 -3.889326 -4.807088 -11.046809 -2.937852 1e-06 -20.976011 0.0 -5.019972 -25.033556 -4.03188 5e-06 2e-06 0.0 -10.634533 -5.686971 -3.565586 10.573272 -17.922947 -3.113899 1e-06 -13.821209 3e-06 -0.501781 -31.181501 -4.027017 -11.66203 -59.633209 7.468569 -13.982712 -7.150198 -2.875041 13.772727 -8.401489 -3.218243 0.34773 -34.211544 0.771654 -0.963029 -17.733366 2.62102 -0.0 -0.0 -1e-06 -17.346418 -20.095219 -4.201779 21.757557 -1.638372 3.866425 1e-06 -6.338823 -0.0 -1.697592 -22.591743 -6.194005 -0.0 -4e-06 -1e-06 41.882679 -82.778168 166.136948 67.493256 -45.099777 -17.798021 26.284369 -0.671569 0.123386 1.033613 -0.074159 11.987083 22.182112 -20.375898 49.933331 -16.701817 -16.74353 28.476536 -3e-06 -12.690603 -1e-06 16.254414 -17.947659 2.678382 -0.105919 -1.513856 -4.275883 -5.039041 -5.612872 -2.953556 3e-06 -11.020525 -4e-06 -6.111297 -15.895334 -3.840471 0.0 -0.0 -1e-06 -10.283371 -5.680288 -4.341839 11.028294 -11.302404 -2.372633 -1.384269 -14.238582 -6.320121 -0.625439 -26.924191 -3.827604 -4.456391 -50.151871 -3.769593 -13.708526 -7.363478 -3.720937 18.141151 -14.052739 -3.242677 4e-06 -18.787271 -0.0 -0.429715 -8.456043 2.555504 -1e-06 -1e-06 -0.0 -15.923536 -20.094486 -5.473586 30.419218 -7.190826 1.735924 1e-06 -8.162927 -0.0 -1.861905 -22.861467 -6.167938 -0.0 -4e-06 -4e-06 -169.15213 -0.13761 -10.014616 5.445805 0.028413 -0.108329 -74.006462 -5.49976 -9.381989 -4.981411 1.359978 2.108836 -0.999999 -1e-06 1e-06 9.597061 -6.394125 -0.732813 8.423118 0.039276 -0.020453 -78.228371 -0.826733 -7.421815 -4.988341 0.778269 1.696519 -1.000003 -0.0 0.0 
0.0 0.0 0.0 0.0 -0.0 0.0 1.974678 100.079002 5.785867 92.239449 9.040283 90.125404 1.606205 -0.183053 0.367466 -11.083807 -0.63719 -0.365852 31.716339 -0.484961 -1.966251 59.002678 -4.534565 1.601646 -2.558195 -0.972438 -0.813447 -18.429348 -3.877075 -0.240713 9e-06 -0.0 0.0 -0.085308 0.047214 -0.020494 0.029416 0.114901 -0.017959 -0.035727 -0.021682 -0.00985 -124.237808 -79.839233 148.642456 54.083843 -50.807331 -7.080453 36.836063 -0.175442 -0.126518 -2.618936 10.851988 -11.781782 17.636635 -26.322725 52.411182 -19.466665 -14.3956 29.410385 -1e-06 -8.774822 -2e-06 15.974502 -18.18564 6.221135 -0.609776 -1.795654 -3.889328 -4.807088 -11.046809 -2.937851 7e-06 -20.976017 -1e-06 -5.019969 -25.033556 -4.03188 5e-06 4e-06 0.0 -10.634535 -5.686971 -3.565589 10.573278 -17.922951 -3.1139 5e-06 -13.821209 1e-06 -0.501775 -31.181501 -4.027015 -11.656401 -59.639034 7.465178 -13.982716 -7.150198 -2.875041 13.772731 -8.401492 -3.218244 0.347737 -34.211552 0.771653 -0.963027 -17.73337 2.621022 -1e-06 -0.0 -0.0 -17.346416 -20.095215 -4.201779 21.757563 -1.638376 3.866425 3e-06 -6.338824 -1e-06 -1.697589 -22.591742 -6.194005 -0.0 -4e-06 -2e-06 42.080528 -82.673622 165.945129 67.26535 -45.321621 -17.543406 26.226755 -0.700197 0.122745 1.019016 -0.086326 11.994428 22.182121 -20.375893 49.933319 -16.701817 -16.74353 28.476532 -5e-06 -12.690603 -2e-06 16.227736 -17.924036 2.689911 -0.10592 -1.513857 -4.275882 -5.039042 -5.612872 -2.953557 4e-06 -11.020523 -4e-06 -6.111296 -15.895334 -3.840474 -1e-06 1e-06 1e-06 -10.283371 -5.680287 -4.341841 11.028296 -11.302405 -2.372633 -1.384267 -14.23858 -6.320121 -0.625433 -26.924191 -3.827603 -4.483665 -50.10099 -3.730553 -13.708527 -7.363478 -3.72094 18.141155 -14.052739 -3.242677 6e-06 -18.78727 -0.0 -0.42971 -8.456045 2.555503 1e-06 0.0 0.0 -15.923536 -20.094482 -5.473589 30.419222 -7.190829 1.735924 2e-06 -8.162925 -1e-06 -1.8619 -22.861469 -6.167942 1e-06 -3e-06 -3e-06 -169.135513 -0.102563 -10.056554 5.462919 0.026927 -0.100215 -74.047615 -5.48316 -9.39205 -4.975144 1.366922 2.109839 -1.0 -1e-06 -0.0 9.559425 -6.442217 -0.749842 8.498339 0.042465 -0.029459 -78.164238 -0.763673 -7.514062 -4.990598 0.768537 1.692841 -1.000003 -0.0 0.0 
0.0 0.0 0.0 0.0 -0.0 0.0 2.023102 100.070831 5.736155 92.23687 9.05342 90.095016 1.609334 -0.220309 0.377328 -11.089219 -0.640227 -0.378602 31.788361 -0.446417 -1.965058 58.925087 -4.481251 1.612248 -2.550522 -0.958415 -0.793889 -18.472532 -3.873489 -0.166033 8e-06 -0.0 0.0 -0.081081 0.046917 -0.020449 0.018537 0.112392 -0.022393 -0.043008 -0.019713 -0.006001 -123.938179 -79.892868 148.38179 54.088173 -50.741364 -6.890073 36.671219 -0.158442 -0.11772 -2.767668 10.928315 -11.870297 17.636625 -26.322721 52.411175 -19.46666 -14.395598 29.410381 -1e-06 -8.774821 -2e-06 15.938778 -18.144405 6.238618 -0.609777 -1.795653 -3.889325 -4.807085 -11.046805 -2.93785 6e-06 -20.976009 -0.0 -5.019968 -25.033545 -4.031877 5e-06 2e-06 -1e-06 -10.634531 -5.686968 -3.565585 10.573274 -17.922945 -3.113901 4e-06 -13.821205 3e-06 -0.501775 -31.181494 -4.027014 -11.619215 -59.594803 7.454154 -13.982712 -7.150195 -2.87504 13.77273 -8.401489 -3.218243 0.347737 -34.211536 0.771652 -0.963028 -17.733366 2.621021 1e-06 -0.0 -1e-06 -17.346413 -20.095209 -4.201781 21.757555 -1.638377 3.866426 2e-06 -6.338821 -0.0 -1.697587 -22.591734 -6.194004 -1e-06 -5e-06 -1e-06 42.294411 -82.566658 165.707916 67.101585 -45.486927 -17.099281 26.094921 -0.700682 0.127922 1.011762 -0.117135 12.071133 22.182108 -20.375891 49.933319 -16.701817 -16.743532 28.47653 -5e-06 -12.690601 -0.0 16.21656 -17.900467 2.706919 -0.105919 -1.513857 -4.27588 -5.039039 -5.61287 -2.953553 5e-06 -11.02052 -4e-06 -6.111297 -15.895329 -3.840467 -1e-06 -0.0 -1e-06 -10.283369 -5.680288 -4.341836 11.028294 -11.302402 -2.372635 -1.384268 -14.238579 -6.320124 -0.625436 -26.924187 -3.827601 -4.506879 -50.069424 -3.695002 -13.708523 -7.363474 -3.720936 18.141151 -14.052738 -3.242678 6e-06 -18.787268 -3e-06 -0.429709 -8.456041 2.555502 0.0 2e-06 0.0 -15.923532 -20.094481 -5.473587 30.41921 -7.190827 1.735922 2e-06 -8.162924 -0.0 -1.861897 -22.861467 -6.167942 -1e-06 -5e-06 -2e-06 -169.126633 -0.074857 -10.081764 5.47264 0.02183 -0.101373 -74.092804 -5.491061 -9.389438 -4.962527 1.375394 2.108011 -0.999998 -0.0 -0.0 9.477043 -6.481128 -0.782615 8.643865 0.047198 -0.032603 -78.234398 -0.699335 -7.613786 -4.985012 0.756979 1.687733 -1.000003 -0.0 -0.0 
